#Comment line ignore any data following # character 
#Hierarchical Translation and Rotation (.htr) file 
[Header]	
#Header keywords are followed by a single value 
FileType HTR		#Single word string
DataType HTRS		#Translation followed by rotation and scale data
FileVersion 1		#integer
NumSegments 84		#integer
NumFrames 2		#integer
DataFrameRate 30		#integer, data frame rate in this file
EulerRotationOrder ZYX
CalibrationUnits mm
RotationUnits Degrees
GlobalAxisofGravity Y
BoneLengthAxis Y
ScaleFactor 1.00
[SegmentNames&Hierarchy]
#CHILD	PARENT
MASTER GLOBAL
root MASTER
chest root
L_mid_tent01 root
R_mid_tent01 root
spine01 root
Bip01_Neck chest
L_humerus chest
R_humerus chest
weapon_bone chest
Bip01_Head Bip01_Neck
eye_left_bone Bip01_Head
eye_right_bone Bip01_Head
L_forearm L_humerus
L_front_hand L_forearm
L_weapon_bone L_forearm
L_front_hand01_01 L_front_hand
L_front_hand02_01 L_front_hand
L_front_hand03_01 L_front_hand
L_front_hand01_02 L_front_hand01_01
L_front_hand02_02 L_front_hand02_01
L_front_hand03_02 L_front_hand03_01
R_forearm R_humerus
R_front_hand R_forearm
R_weapon_bone R_forearm
R_front_hand01_01 R_front_hand
R_front_hand02_01 R_front_hand
R_front_hand03_01 R_front_hand
R_front_hand01_02 R_front_hand01_01
R_front_hand02_02 R_front_hand02_01
R_front_hand03_02 R_front_hand03_01
null_rope01_connect L_mid_tent01
Rope1_Seg01 null_rope01_connect
Rope1_Seg02 Rope1_Seg01
Rope1_Seg03 Rope1_Seg02
Rope1_Seg04 Rope1_Seg03
Rope1_Seg05 Rope1_Seg04
Rope1_Seg06 Rope1_Seg05
Rope1_Seg07 Rope1_Seg06
Rope1_Seg09 Rope1_Seg07
L_mid_hand01 Rope1_Seg09
L_mid_hand02 Rope1_Seg09
L_mid_hand03 Rope1_Seg09
null_rope02_connect R_mid_tent01
Rope2_Seg01 null_rope02_connect
Rope2_Seg02 Rope2_Seg01
Rope2_Seg03 Rope2_Seg02
Rope2_Seg04 Rope2_Seg03
Rope2_Seg05 Rope2_Seg04
Rope2_Seg06 Rope2_Seg05
Rope2_Seg07 Rope2_Seg06
Rope2_Seg09 Rope2_Seg07
R_mid_hand01 Rope2_Seg09
R_mid_hand02 Rope2_Seg09
R_mid_hand03 Rope2_Seg09
spine02 spine01
spine03 spine02
pelvis spine03
null_rope03_connect pelvis
null_rope04_connect pelvis
Rope3_Seg01 null_rope03_connect
Rope3_Seg02 Rope3_Seg01
Rope3_Seg03 Rope3_Seg02
Rope3_Seg04 Rope3_Seg03
Rope3_Seg05 Rope3_Seg04
Rope3_Seg06 Rope3_Seg05
Rope3_Seg07 Rope3_Seg06
Rope3_Seg08 Rope3_Seg07
Rope3_Seg09 Rope3_Seg08
R_rear_hand01 Rope3_Seg09
R_rear_hand02 Rope3_Seg09
R_rear_hand03 Rope3_Seg09
Rope4_Seg01 null_rope04_connect
Rope4_Seg02 Rope4_Seg01
Rope4_Seg03 Rope4_Seg02
Rope4_Seg04 Rope4_Seg03
Rope4_Seg05 Rope4_Seg04
Rope4_Seg06 Rope4_Seg05
Rope4_Seg07 Rope4_Seg06
Rope4_Seg08 Rope4_Seg07
Rope4_Seg09 Rope4_Seg08
L_rear_hand01 Rope4_Seg09
L_rear_hand02 Rope4_Seg09
L_rear_hand03 Rope4_Seg09
[BasePosition]
#SegmentName Tx, Ty, Tz, Rx, Ry, Rz, BoneLength
MASTER 0.000000 0.000000 0.000000 -90.000000 0.000000 0.000000 10.000000 
root 0.000000 0.000000 0.000000 0.000000 0.000000 0.000000 10.000000 
chest 0.000000 0.000000 0.000000 0.000000 0.000000 0.000000 10.000000 
L_mid_tent01 0.000000 0.000000 0.000000 0.000000 0.000000 0.000000 10.000000 
R_mid_tent01 0.000000 0.000000 0.000000 0.000000 0.000000 0.000000 10.000000 
spine01 0.000000 0.000000 0.000000 0.000000 0.000000 0.000000 10.000000 
Bip01_Neck 0.000000 0.000000 0.000000 0.000000 0.000000 0.000000 10.000000 
L_humerus 0.000000 0.000000 0.000000 0.000000 0.000000 0.000000 10.000000 
R_humerus 0.000000 0.000000 0.000000 0.000000 0.000000 0.000000 10.000000 
weapon_bone 0.000000 0.000000 0.000000 0.000000 0.000000 0.000000 10.000000 
Bip01_Head 0.000000 0.000000 0.000000 0.000000 0.000000 0.000000 10.000000 
eye_left_bone 0.000000 0.000000 0.000000 0.000000 0.000000 0.000000 10.000000 
eye_right_bone 0.000000 0.000000 0.000000 0.000000 0.000000 0.000000 10.000000 
L_forearm 0.000000 0.000000 0.000000 0.000000 0.000000 0.000000 10.000000 
L_front_hand 0.000000 0.000000 0.000000 0.000000 0.000000 0.000000 10.000000 
L_weapon_bone 0.000000 0.000000 0.000000 0.000000 0.000000 0.000000 10.000000 
L_front_hand01_01 0.000000 0.000000 0.000000 0.000000 0.000000 0.000000 10.000000 
L_front_hand02_01 0.000000 0.000000 0.000000 0.000000 0.000000 0.000000 10.000000 
L_front_hand03_01 0.000000 0.000000 0.000000 0.000000 0.000000 0.000000 10.000000 
L_front_hand01_02 0.000000 0.000000 0.000000 0.000000 0.000000 0.000000 10.000000 
L_front_hand02_02 0.000000 0.000000 0.000000 0.000000 0.000000 0.000000 10.000000 
L_front_hand03_02 0.000000 0.000000 0.000000 0.000000 0.000000 0.000000 10.000000 
R_forearm 0.000000 0.000000 0.000000 0.000000 0.000000 0.000000 10.000000 
R_front_hand 0.000000 0.000000 0.000000 0.000000 0.000000 0.000000 10.000000 
R_weapon_bone 0.000000 0.000000 0.000000 0.000000 0.000000 0.000000 10.000000 
R_front_hand01_01 0.000000 0.000000 0.000000 0.000000 0.000000 0.000000 10.000000 
R_front_hand02_01 0.000000 0.000000 0.000000 0.000000 0.000000 0.000000 10.000000 
R_front_hand03_01 0.000000 0.000000 0.000000 0.000000 0.000000 0.000000 10.000000 
R_front_hand01_02 0.000000 0.000000 0.000000 0.000000 0.000000 0.000000 10.000000 
R_front_hand02_02 0.000000 0.000000 0.000000 0.000000 0.000000 0.000000 10.000000 
R_front_hand03_02 0.000000 0.000000 0.000000 0.000000 0.000000 0.000000 10.000000 
null_rope01_connect 0.000000 0.000000 0.000000 0.000000 0.000000 0.000000 10.000000 
Rope1_Seg01 0.000000 0.000000 0.000000 0.000000 0.000000 0.000000 10.000000 
Rope1_Seg02 0.000000 0.000000 0.000000 0.000000 0.000000 0.000000 10.000000 
Rope1_Seg03 0.000000 0.000000 0.000000 0.000000 0.000000 0.000000 10.000000 
Rope1_Seg04 0.000000 0.000000 0.000000 0.000000 0.000000 0.000000 10.000000 
Rope1_Seg05 0.000000 0.000000 0.000000 0.000000 0.000000 0.000000 10.000000 
Rope1_Seg06 0.000000 0.000000 0.000000 0.000000 0.000000 0.000000 10.000000 
Rope1_Seg07 0.000000 0.000000 0.000000 0.000000 0.000000 0.000000 10.000000 
Rope1_Seg09 0.000000 0.000000 0.000000 0.000000 0.000000 0.000000 10.000000 
L_mid_hand01 0.000000 0.000000 0.000000 0.000000 0.000000 0.000000 10.000000 
L_mid_hand02 0.000000 0.000000 0.000000 0.000000 0.000000 0.000000 10.000000 
L_mid_hand03 0.000000 0.000000 0.000000 0.000000 0.000000 0.000000 10.000000 
null_rope02_connect 0.000000 0.000000 0.000000 0.000000 0.000000 0.000000 10.000000 
Rope2_Seg01 0.000000 0.000000 0.000000 0.000000 0.000000 0.000000 10.000000 
Rope2_Seg02 0.000000 0.000000 0.000000 0.000000 0.000000 0.000000 10.000000 
Rope2_Seg03 0.000000 0.000000 0.000000 0.000000 0.000000 0.000000 10.000000 
Rope2_Seg04 0.000000 0.000000 0.000000 0.000000 0.000000 0.000000 10.000000 
Rope2_Seg05 0.000000 0.000000 0.000000 0.000000 0.000000 0.000000 10.000000 
Rope2_Seg06 0.000000 0.000000 0.000000 0.000000 0.000000 0.000000 10.000000 
Rope2_Seg07 0.000000 0.000000 0.000000 0.000000 0.000000 0.000000 10.000000 
Rope2_Seg09 0.000000 0.000000 0.000000 0.000000 0.000000 0.000000 10.000000 
R_mid_hand01 0.000000 0.000000 0.000000 0.000000 0.000000 0.000000 10.000000 
R_mid_hand02 0.000000 0.000000 0.000000 0.000000 0.000000 0.000000 10.000000 
R_mid_hand03 0.000000 0.000000 0.000000 0.000000 0.000000 0.000000 10.000000 
spine02 0.000000 0.000000 0.000000 0.000000 0.000000 0.000000 10.000000 
spine03 0.000000 0.000000 0.000000 0.000000 0.000000 0.000000 10.000000 
pelvis 0.000000 0.000000 0.000000 0.000000 0.000000 0.000000 10.000000 
null_rope03_connect 0.000000 0.000000 0.000000 0.000000 0.000000 0.000000 10.000000 
null_rope04_connect 0.000000 0.000000 0.000000 0.000000 0.000000 0.000000 10.000000 
Rope3_Seg01 0.000000 0.000000 0.000000 0.000000 0.000000 0.000000 10.000000 
Rope3_Seg02 0.000000 0.000000 0.000000 0.000000 0.000000 0.000000 10.000000 
Rope3_Seg03 0.000000 0.000000 0.000000 0.000000 0.000000 0.000000 10.000000 
Rope3_Seg04 0.000000 0.000000 0.000000 0.000000 0.000000 0.000000 10.000000 
Rope3_Seg05 0.000000 0.000000 0.000000 0.000000 0.000000 0.000000 10.000000 
Rope3_Seg06 0.000000 0.000000 0.000000 0.000000 0.000000 0.000000 10.000000 
Rope3_Seg07 0.000000 0.000000 0.000000 0.000000 0.000000 0.000000 10.000000 
Rope3_Seg08 0.000000 0.000000 0.000000 0.000000 0.000000 0.000000 10.000000 
Rope3_Seg09 0.000000 0.000000 0.000000 0.000000 0.000000 0.000000 10.000000 
R_rear_hand01 0.000000 0.000000 0.000000 0.000000 0.000000 0.000000 10.000000 
R_rear_hand02 0.000000 0.000000 0.000000 0.000000 0.000000 0.000000 10.000000 
R_rear_hand03 0.000000 0.000000 0.000000 0.000000 0.000000 0.000000 10.000000 
Rope4_Seg01 0.000000 0.000000 0.000000 0.000000 0.000000 0.000000 10.000000 
Rope4_Seg02 0.000000 0.000000 0.000000 0.000000 0.000000 0.000000 10.000000 
Rope4_Seg03 0.000000 0.000000 0.000000 0.000000 0.000000 0.000000 10.000000 
Rope4_Seg04 0.000000 0.000000 0.000000 0.000000 0.000000 0.000000 10.000000 
Rope4_Seg05 0.000000 0.000000 0.000000 0.000000 0.000000 0.000000 10.000000 
Rope4_Seg06 0.000000 0.000000 0.000000 0.000000 0.000000 0.000000 10.000000 
Rope4_Seg07 0.000000 0.000000 0.000000 0.000000 0.000000 0.000000 10.000000 
Rope4_Seg08 0.000000 0.000000 0.000000 0.000000 0.000000 0.000000 10.000000 
Rope4_Seg09 0.000000 0.000000 0.000000 0.000000 0.000000 0.000000 10.000000 
L_rear_hand01 0.000000 0.000000 0.000000 0.000000 0.000000 0.000000 10.000000 
L_rear_hand02 0.000000 0.000000 0.000000 0.000000 0.000000 0.000000 10.000000 
L_rear_hand03 0.000000 0.000000 0.000000 0.000000 0.000000 0.000000 10.000000 
#Beginning of Data. Separated by tabs
#Fr	Tx	Ty	Tz	Rx	Ry	Rz	SF
[MASTER]
1 0.000003 0.000000 0.000000 0.001660 0.001660 0.001660 0.000003
2 -0.000024 174.792923 0.000000 0.001660 0.001660 0.001660 174.792923
[root]
1 -16.502293 -62.821960 1500.000000 -91.767502 -35.574497 -89.880173 1501.405640
2 -16.502293 -62.821960 1500.000000 -91.767517 -35.574509 -89.880173 1501.405640
[chest]
1 -84.512650 -34.090519 0.000000 -2.019906 0.602782 171.823990 91.129311
2 -84.512650 -34.090519 0.000000 -1.864622 0.846206 171.146347 91.129311
[L_mid_tent01]
1 27.299500 22.177504 -249.918274 -1.379268 36.511192 66.497536 252.381149
2 27.299492 22.177509 -249.918274 -1.379268 36.511192 66.497536 252.381149
[R_mid_tent01]
1 23.228794 24.509907 226.238495 173.895706 -30.891880 58.389252 228.744751
2 23.228794 24.509907 226.238495 173.895706 -30.891880 58.389252 228.744751
[spine01]
1 -0.361383 -0.195265 0.000000 0.001845 0.001451 13.654368 0.410763
2 -0.361383 -0.195265 0.000000 0.001845 0.001451 13.654368 0.410763
[Bip01_Neck]
1 165.484543 71.581718 0.000119 176.643677 -1.657967 43.431911 180.302734
2 165.484543 71.581718 0.000119 176.643677 -1.657967 43.431911 180.302734
[L_humerus]
1 -13.983130 -135.272980 -120.471481 156.317398 70.210068 -112.010254 181.680161
2 -13.983130 -135.272980 -120.471481 160.998093 69.404602 -104.701729 181.680161
[R_humerus]
1 -13.983309 -135.273102 125.287651 -172.382263 -66.903831 -92.553993 184.909012
2 -13.983309 -135.273102 125.287651 -174.897476 -65.267502 -87.071533 184.909012
[weapon_bone]
1 235.964890 -300.705902 0.000000 0.000000 -89.951546 -128.212341 382.234833
2 235.964890 -300.705902 0.000000 0.000000 -89.951546 -128.212341 382.234833
[Bip01_Head]
1 213.444290 185.715408 11.776943 4.962490 2.797846 -43.898743 283.173767
2 213.443863 185.716568 11.761753 4.962490 2.797846 -43.898750 283.173553
[eye_left_bone]
1 -24.626970 125.451866 -64.772606 0.000000 -90.000000 -99.840431 143.318359
2 -24.626970 125.451866 -64.772606 0.000000 -90.000000 -99.840431 143.318359
[eye_right_bone]
1 -24.626970 125.451866 64.327362 0.000000 -89.965736 80.156380 143.117676
2 -24.626970 125.451866 64.327362 0.000000 -89.965736 80.156380 143.117676
[L_forearm]
1 322.776093 0.000000 -0.000119 0.000119 -0.002344 -95.807457 322.776093
2 322.776093 0.000000 -0.000119 0.000177 -0.002341 -98.661659 322.776093
[L_front_hand]
1 241.149185 -0.042021 -3.300071 -178.667953 -1.835447 -27.422350 241.171753
2 241.149185 -0.042021 -3.300071 -178.590210 -1.775268 -29.929670 241.171753
[L_weapon_bone]
1 156.183838 0.000000 0.000000 0.000014 0.000007 0.000001 156.183838
2 156.183838 0.000000 0.000000 0.000014 0.000007 0.000001 156.183838
[L_front_hand01_01]
1 86.095154 20.947098 -0.655860 -0.366594 -0.477154 75.385574 88.609184
2 86.095154 20.947098 -0.655860 -0.366594 -0.477154 75.385582 88.609184
[L_front_hand02_01]
1 86.935165 -11.437475 24.513514 154.399796 -59.883835 -61.369587 91.046425
2 86.935165 -11.437475 24.513514 154.399796 -59.883835 -61.369587 91.046425
[L_front_hand03_01]
1 86.637497 -14.123976 -20.424902 -153.913849 58.118122 -62.702866 90.126129
2 86.637497 -14.123976 -20.424902 -153.913849 58.118122 -62.702866 90.126129
[L_front_hand01_02]
1 71.020905 -0.000179 0.000030 0.000325 -0.002325 -105.915688 71.020905
2 71.020905 -0.000179 0.000030 0.000324 -0.002325 -105.870499 71.020905
[L_front_hand02_02]
1 71.020927 -0.000119 0.000060 0.000325 -0.002325 -105.915688 71.020927
2 71.020927 -0.000119 0.000060 0.000324 -0.002325 -105.870499 71.020927
[L_front_hand03_02]
1 71.020905 -0.000060 0.000060 0.000325 -0.002325 -105.915688 71.020905
2 71.020905 -0.000060 0.000060 0.000324 -0.002325 -105.870499 71.020905
[R_forearm]
1 322.776428 -0.000060 0.000030 0.209504 0.012586 -94.339050 322.776428
2 322.776428 -0.000060 0.000030 0.212441 0.021056 -96.948540 322.776428
[R_front_hand]
1 238.847015 -0.006795 2.210259 -2.635298 -10.645461 -26.312506 238.857239
2 238.847015 -0.006795 2.210259 -2.082062 -10.765116 -29.275591 238.857239
[R_weapon_bone]
1 155.664093 0.002503 -0.000030 0.003487 0.001180 -90.988930 155.664078
2 155.664093 0.002503 -0.000030 0.003487 0.001180 -90.988930 155.664078
[R_front_hand01_01]
1 87.624611 14.231146 22.918642 -154.633499 -59.950619 61.746044 91.683487
2 87.624611 14.231146 22.918642 -154.633484 -59.950619 61.746037 91.683487
[R_front_hand02_01]
1 89.356956 14.367283 -19.491137 154.602661 58.302849 63.744389 92.579636
2 89.356956 14.367283 -19.491137 154.602661 58.302849 63.744389 92.579636
[R_front_hand03_01]
1 87.286232 -22.307278 -0.143439 0.162155 -0.423168 -75.767921 90.091743
2 87.286232 -22.307278 -0.143439 0.162155 -0.423168 -75.767906 90.091743
[R_front_hand01_02]
1 71.020905 0.000060 0.000119 0.002323 -0.000334 106.381714 71.020905
2 71.020905 0.000060 0.000119 0.002323 -0.000334 106.381714 71.020905
[R_front_hand02_02]
1 71.020844 -0.000030 -0.000119 0.002323 -0.000334 106.381714 71.020836
2 71.020844 -0.000030 -0.000119 0.002323 -0.000334 106.381714 71.020836
[R_front_hand03_02]
1 71.020905 0.000000 0.000030 0.002323 -0.000334 106.381714 71.020905
2 71.020905 0.000000 0.000030 0.002323 -0.000334 106.381714 71.020905
[null_rope01_connect]
1 328.732483 0.000000 -0.000238 -124.157524 -51.912300 -176.982559 328.732483
2 328.732483 0.000000 -0.000238 -124.157524 -51.912308 -176.982559 328.732483
[Rope1_Seg01]
1 0.000000 0.000000 0.000000 158.254364 43.589428 -157.239624 0.000000
2 0.000000 0.000000 0.000000 170.348160 46.186310 -149.839676 0.000000
[Rope1_Seg02]
1 139.999863 -0.000179 0.000000 14.288201 -25.490185 2.175797 139.999863
2 139.999863 -0.000179 0.000000 11.588955 -27.935228 7.674024 139.999863
[Rope1_Seg03]
1 139.999924 0.000060 -0.000060 2.411417 -38.705860 11.040667 139.999924
2 139.999924 0.000060 -0.000060 -0.934992 -34.266163 16.224936 139.999924
[Rope1_Seg04]
1 139.999924 -0.000060 -0.000119 -3.941992 -20.774948 10.875244 139.999924
2 139.999924 -0.000060 -0.000119 -3.081556 -17.207781 12.579643 139.999924
[Rope1_Seg05]
1 139.999832 0.000119 -0.000060 0.171665 -12.432644 18.777914 139.999832
2 139.999832 0.000119 -0.000060 0.107712 -12.552087 18.721352 139.999832
[Rope1_Seg06]
1 139.999954 0.000119 -0.000060 4.085022 -8.197788 14.080245 139.999954
2 139.999954 0.000119 -0.000060 2.867237 -8.121636 12.790493 139.999954
[Rope1_Seg07]
1 139.999985 0.000060 0.000000 3.283907 -4.001345 6.658511 139.999985
2 139.999985 0.000060 0.000000 2.630007 -4.013853 6.323114 139.999985
[Rope1_Seg09]
1 121.602913 0.000119 -0.000089 -89.793175 -1.359789 0.847147 121.602913
2 121.602913 0.000119 -0.000089 -89.793175 -1.359789 0.847147 121.602913
[L_mid_hand01]
1 103.859421 1.038730 8.195221 122.491409 -62.517220 -29.998974 104.187431
2 103.859421 1.038730 8.195221 124.819580 -64.267235 -32.597427 104.187431
[L_mid_hand02]
1 105.572853 -4.139662 -10.864139 -163.295013 41.893867 -65.202042 106.211075
2 105.572853 -4.139662 -10.864139 -165.125824 42.469841 -67.932709 106.211075
[L_mid_hand03]
1 104.641464 17.579376 -3.913581 -7.977071 17.043644 68.353111 106.179977
2 104.641464 17.579376 -3.913581 -7.329667 17.320337 70.532539 106.179977
[null_rope02_connect]
1 328.732849 0.000179 -0.000119 -98.934196 59.714329 12.539274 328.732849
2 328.732849 0.000179 -0.000119 -98.934196 59.714317 12.539261 328.732849
[Rope2_Seg01]
1 0.000076 0.000153 0.000000 -126.456322 32.851925 -34.482101 0.000171
2 0.000075 0.000149 0.000003 -135.058243 35.024364 -36.250443 0.000167
[Rope2_Seg02]
1 139.999741 -0.000060 -0.000119 -5.808781 -14.110761 9.581824 139.999756
2 139.999741 -0.000060 -0.000119 -2.175171 -15.674714 8.021453 139.999756
[Rope2_Seg03]
1 140.000107 0.000030 0.000000 -13.695120 -39.151943 29.315855 140.000107
2 140.000107 0.000030 0.000000 -11.189552 -40.179859 26.246195 140.000107
[Rope2_Seg04]
1 139.999802 0.000000 -0.000060 -5.385807 -31.978058 20.512163 139.999802
2 139.999802 0.000000 -0.000060 -5.000204 -32.192223 17.973560 139.999802
[Rope2_Seg05]
1 139.999985 -0.000060 0.000119 -4.036723 -16.654417 2.548420 139.999985
2 139.999985 -0.000060 0.000119 -5.092601 -18.122562 2.002483 139.999985
[Rope2_Seg06]
1 139.999893 -0.000030 -0.000119 -9.376147 -14.243690 -1.469808 139.999893
2 139.999893 -0.000030 -0.000119 -8.296187 -12.735803 -0.986840 139.999893
[Rope2_Seg07]
1 139.999893 0.000060 -0.000060 -6.825443 -7.343217 -0.949962 139.999893
2 139.999893 0.000060 -0.000060 -5.566992 -6.281952 -0.649697 139.999893
[Rope2_Seg09]
1 121.338966 0.000089 -0.000060 33.793236 -1.359788 -0.847141 121.338966
2 121.338966 0.000089 -0.000060 33.793236 -1.359788 -0.847141 121.338966
[R_mid_hand01]
1 104.680779 11.144459 -10.335981 -21.814814 43.253063 62.439850 105.778534
2 104.680779 11.144459 -10.335981 -20.005522 43.977985 65.062431 105.778534
[R_mid_hand02]
1 104.070427 2.443552 8.231699 57.026505 -62.880825 30.539303 104.424065
2 104.070427 2.443552 8.231699 54.725475 -64.563515 33.105427 104.424065
[R_mid_hand03]
1 106.028137 -11.221827 -5.996406 -175.434525 15.155500 -70.298363 106.788818
2 106.028137 -11.221827 -5.996406 -175.984314 15.307883 -72.395805 106.788818
[spine02]
1 129.756927 0.001550 0.000119 -1.023899 -3.926965 6.770993 129.756927
2 129.756927 0.001550 0.000119 -1.026949 -4.060634 6.772573 129.756927
[spine03]
1 78.613808 0.087433 -4.898872 1.040681 4.146420 4.212376 78.766350
2 78.613823 0.087426 -4.898872 1.040071 4.389066 4.219841 78.766365
[pelvis]
1 169.435242 0.051022 0.000000 0.019518 -0.190233 -10.721436 169.435257
2 169.435242 0.051022 0.000000 0.020123 -0.090827 -10.721409 169.435257
[null_rope03_connect]
1 -1.257226 -2.466202 137.391083 -147.775742 -87.997871 -100.479507 137.418976
2 -1.257226 -2.466202 137.391083 -142.318359 -87.918510 -105.933578 137.418976
[null_rope04_connect]
1 -1.259640 -2.480268 -137.844437 -147.775742 -87.997871 -100.479507 137.872513
2 -1.259640 -2.480268 -137.844437 -142.318359 -87.918510 -105.933578 137.872513
[Rope3_Seg01]
1 -0.000019 -0.000076 -0.000153 -142.833206 -36.076233 -61.149830 0.000172
2 -0.000019 -0.000088 -0.000153 -143.024277 -35.844559 -60.642654 0.000177
[Rope3_Seg02]
1 139.999924 -0.000119 0.000060 -28.008471 3.890137 -42.688969 139.999924
2 139.999924 -0.000119 0.000060 -27.706396 5.106216 -41.421413 139.999924
[Rope3_Seg03]
1 139.999924 -0.000119 0.000119 -52.313320 18.801548 -31.704140 139.999924
2 139.999924 -0.000119 0.000119 -41.920277 16.941099 -26.027765 139.999924
[Rope3_Seg04]
1 139.999924 0.000119 0.000000 -47.983368 55.362774 -25.400352 139.999924
2 139.999924 0.000119 0.000000 -57.083855 51.742596 -34.706966 139.999924
[Rope3_Seg05]
1 139.999924 -0.000238 0.000060 -0.310811 17.436043 5.765591 139.999924
2 139.999924 -0.000238 0.000060 -1.093810 21.412939 6.170618 139.999924
[Rope3_Seg06]
1 139.999893 -0.000119 -0.000060 0.630073 4.875618 1.736384 139.999893
2 139.999893 -0.000119 -0.000060 0.587119 5.435491 1.797224 139.999893
[Rope3_Seg07]
1 139.999771 0.000060 -0.000119 0.712573 2.775598 0.958912 139.999771
2 139.999771 0.000060 -0.000119 0.700006 3.023037 0.965118 139.999771
[Rope3_Seg08]
1 139.999985 -0.000060 0.000000 0.676558 1.576352 0.520429 139.999985
2 139.999985 -0.000060 0.000000 0.677118 1.695063 0.521145 139.999985
[Rope3_Seg09]
1 90.185997 -0.000179 -0.000060 89.793228 -1.359877 -0.847183 90.185997
2 90.185997 -0.000179 -0.000060 89.793228 -1.359877 -0.847183 90.185997
[R_rear_hand01]
1 103.366196 -6.073594 -10.757982 -174.771057 24.138128 -66.790482 104.101845
2 103.366196 -6.073594 -10.757982 -175.750656 24.319431 -69.167931 104.101845
[R_rear_hand02]
1 100.509819 12.039542 -7.992327 -17.440544 35.165932 64.409729 101.543350
2 100.509819 12.039542 -7.992327 -15.958945 35.791550 66.963280 101.543350
[R_rear_hand03]
1 101.539970 5.215704 5.435467 76.143005 -65.573051 16.525120 101.819031
2 101.539970 5.215704 5.435467 74.885956 -67.678215 17.894732 101.819031
[Rope4_Seg01]
1 -0.000076 -0.000191 0.000000 64.435684 -51.443905 -116.294998 0.000205
2 -0.000075 -0.000186 0.000000 60.946434 -49.436726 -112.547142 0.000201
[Rope4_Seg02]
1 139.999985 0.000060 0.000119 21.249294 -43.050110 18.378222 139.999985
2 139.999985 0.000060 0.000119 16.934883 -40.132114 16.744091 139.999985
[Rope4_Seg03]
1 139.999924 0.000000 -0.000238 33.582191 -23.932749 30.046860 139.999924
2 139.999924 0.000000 -0.000238 32.629482 -26.724915 26.192451 139.999924
[Rope4_Seg04]
1 139.999985 0.000000 0.000119 21.933989 5.996191 51.445698 139.999985
2 139.999985 0.000000 0.000119 25.215544 -0.390344 55.162239 139.999985
[Rope4_Seg05]
1 139.999802 -0.000060 -0.000119 0.875133 6.024083 12.199579 139.999802
2 139.999802 -0.000060 -0.000119 1.661421 7.237823 15.627075 139.999802
[Rope4_Seg06]
1 139.999924 0.000000 0.000060 -0.139095 2.140271 4.387729 139.999924
2 139.999924 0.000000 0.000060 -0.128281 2.224748 4.778992 139.999924
[Rope4_Seg07]
1 139.999802 0.000000 0.000000 -0.128396 1.251214 2.587226 139.999802
2 139.999802 0.000000 0.000000 -0.131311 1.266342 2.740549 139.999802
[Rope4_Seg08]
1 139.999924 0.000000 0.000119 -1.641124 0.715535 1.490180 139.999924
2 139.999924 0.000000 0.000119 -1.645734 0.711578 1.554515 139.999924
[Rope4_Seg09]
1 90.185791 0.000060 0.000060 -135.617828 2.228885 0.850567 90.185791
2 90.185791 0.000060 0.000060 -135.617828 2.228885 0.850567 90.185791
[L_rear_hand01]
1 101.696655 -8.392275 -7.654577 -17.501701 -35.138012 115.701401 102.329041
2 101.696655 -8.392275 -7.654577 -16.003159 -35.771038 113.113571 102.329041
[L_rear_hand02]
1 102.726799 -1.568258 5.773216 76.184814 65.478874 163.526367 102.900848
2 102.726799 -1.568258 5.773216 74.920189 67.616348 162.147324 102.900848
[L_rear_hand03]
1 104.552910 9.721220 -10.420293 -174.728683 -24.129618 -113.309677 105.519653
2 104.552910 9.721220 -10.420293 -175.722000 -24.314543 -110.899895 105.519653
